<?xml version="1.0" encoding="UTF-8" standalone="no"?>
<svg width="318px" height="200px" viewBox="0 0 318 200" version="1.1" xmlns="http://www.w3.org/2000/svg" xmlns:xlink="http://www.w3.org/1999/xlink">
    <!-- Generator: Sketch 44.1 (41455) - http://www.bohemiancoding.com/sketch -->
    <title>Slice 1</title>
    <desc>Created with Sketch.</desc>
    <defs>
        <path d="M29.874,18.408 L41.084,18.408 L41.084,0.362 L29.874,0.362 L29.874,18.408 Z M0.38,116.112 L11.589,116.112 L11.589,0.362 L0.38,0.362 L0.38,116.112 Z M83.575,31.168 C89.484,28.226 95.778,26.756 102.456,26.756 C115.654,26.756 126.584,31.142 135.249,39.913 C143.915,48.685 148.247,59.642 148.247,72.785 C148.247,85.612 143.967,96.424 135.408,105.221 C126.849,114.02 116.156,118.418 103.331,118.418 C96.227,118.418 89.828,117.039 84.132,114.284 C78.433,111.529 73.704,107.526 69.942,102.279 L69.942,108.321 L69.942,121.359 L69.942,144.414 L58.891,144.414 L58.891,28.664 L69.942,28.664 L69.942,42.974 C73.121,38.045 77.665,34.11 83.575,31.168 Z M79.799,97.391 C86.37,104.465 94.109,108.004 103.012,108.004 C112.181,108.004 120.052,104.653 126.624,97.948 C133.196,91.243 136.482,83.015 136.482,73.262 C136.482,63.035 133.183,54.461 126.584,47.545 C119.985,40.628 111.996,37.17 102.615,37.17 C93.975,37.17 86.37,40.642 79.799,47.585 C73.227,54.528 69.942,62.61 69.942,71.831 C69.942,81.796 73.227,90.316 79.799,97.391 Z M29.874,116.112 L41.084,116.112 L41.084,28.663 L29.874,28.663 L29.874,116.112 Z" id="path-1"></path>
        <path d="M13.115,12.908 C21.154,4.482 30.955,0.363 42.328,0.363 C54.285,0.363 64.285,4.676 72.518,13.107 C80.946,21.534 85.262,31.535 85.456,43.298 C85.653,55.255 81.731,65.449 73.693,74.273 C65.655,83.095 56.05,87.605 44.483,88.191 C32.33,88.777 21.938,84.467 13.115,75.447 C4.293,66.234 0.177,55.449 0.568,43.101 C0.764,31.34 5.077,21.339 13.115,12.908 Z" id="path-3"></path>
    </defs>
    <g id="Page-1" stroke="none" stroke-width="1" fill="none" fill-rule="evenodd">
        <g id="logoblip">
            <g id="Group-3" transform="translate(169.000000, 20.000000)">
                <g id="Fill-1-Clipped">
                    <mask id="mask-2" fill="white">
                        <use xlink:href="#path-1"></use>
                    </mask>
                    <g id="path-1"></g>
                    <path d="M29.874,18.408 L41.084,18.408 L41.084,0.362 L29.874,0.362 L29.874,18.408 Z M0.38,116.112 L11.589,116.112 L11.589,0.362 L0.38,0.362 L0.38,116.112 Z M83.575,31.168 C77.665,34.11 73.121,38.045 69.942,42.974 L69.942,42.974 L69.942,28.664 L58.891,28.664 L58.891,144.414 L69.942,144.414 L69.942,121.359 L69.942,108.321 L69.942,102.279 C73.704,107.526 78.433,111.529 84.132,114.284 L84.132,114.284 C89.828,117.039 96.227,118.418 103.331,118.418 L103.331,118.418 C116.156,118.418 126.849,114.02 135.408,105.221 L135.408,105.221 C143.967,96.424 148.247,85.612 148.247,72.785 L148.247,72.785 C148.247,59.642 143.915,48.685 135.249,39.913 L135.249,39.913 C126.584,31.142 115.654,26.756 102.456,26.756 L102.456,26.756 C95.778,26.756 89.484,28.226 83.575,31.168 L83.575,31.168 Z M79.799,97.391 C73.227,90.316 69.942,81.796 69.942,71.831 L69.942,71.831 C69.942,62.61 73.227,54.528 79.799,47.585 L79.799,47.585 C86.37,40.642 93.975,37.17 102.615,37.17 L102.615,37.17 C111.996,37.17 119.985,40.628 126.584,47.545 L126.584,47.545 C133.183,54.461 136.482,63.035 136.482,73.262 L136.482,73.262 C136.482,83.015 133.196,91.243 126.624,97.948 L126.624,97.948 C120.052,104.653 112.181,108.004 103.012,108.004 L103.012,108.004 C94.109,108.004 86.37,104.465 79.799,97.391 L79.799,97.391 Z M29.874,116.112 L41.084,116.112 L41.084,28.663 L29.874,28.663 L29.874,116.112 Z" id="Fill-1" fill="#FFFFFF" fill-rule="nonzero" mask="url(#mask-2)"></path>
                </g>
            </g>
            <path d="M35.177,54.657 C46.156,41.913 59.879,35.443 76.346,34.855 C92.423,34.268 106.342,39.756 117.909,51.519 C129.67,63.283 135.552,77.203 135.552,93.473 C135.552,109.156 130.063,122.685 119.281,134.052 C108.496,145.425 95.167,151.309 79.678,151.894 C63.604,152.481 49.684,146.796 37.724,135.036 C25.766,123.273 20.079,109.355 20.473,93.279 L20.473,24.695 C7.913,38.227 0.223,56.337 0.223,76.256 C0.223,78.218 0.319,80.16 0.469,82.085 C0.659,86.839 2.595,110.14 22.204,134.352 C44.123,161.419 75.857,198.964 76.03,199.167 C76.204,198.964 107.939,161.419 129.861,134.352 C149.162,110.52 151.344,87.559 151.585,82.312 C151.747,80.313 151.849,78.296 151.849,76.256 C151.849,34.382 117.907,0.443 76.035,0.443 C60.985,0.443 46.97,4.845 35.177,12.41 L35.177,54.657 Z" id="Fill-4" fill="#FFFFFF" fill-rule="nonzero"></path>
            <g id="Group-8" transform="translate(35.000000, 49.000000)">
                <g id="Fill-6-Clipped">
                    <mask id="mask-4" fill="white">
                        <use xlink:href="#path-3"></use>
                    </mask>
                    <g id="path-3"></g>
                    <path d="M13.115,12.908 C5.077,21.339 0.764,31.34 0.568,43.101 L0.568,43.101 C0.177,55.449 4.293,66.234 13.115,75.447 L13.115,75.447 C21.938,84.467 32.33,88.777 44.483,88.191 L44.483,88.191 C56.05,87.605 65.655,83.095 73.693,74.273 L73.693,74.273 C81.731,65.449 85.653,55.255 85.456,43.298 L85.456,43.298 C85.262,31.535 80.946,21.534 72.518,13.107 L72.518,13.107 C64.285,4.676 54.285,0.363 42.328,0.363 L42.328,0.363 C30.955,0.363 21.154,4.482 13.115,12.908" id="Fill-6" fill="#FFFFFF" fill-rule="nonzero" mask="url(#mask-4)"></path>
                </g>
            </g>
        </g>
    </g>
</svg>