<?xml version="1.0" encoding="iso-8859-1"?>
<!-- Generator: Adobe Illustrator 19.0.0, SVG Export Plug-In . SVG Version: 6.00 Build 0)  -->
<svg version="1.1" id="Layer_1" xmlns="http://www.w3.org/2000/svg" xmlns:xlink="http://www.w3.org/1999/xlink" x="0px" y="0px"
	 viewBox="0 0 513.067 513.067" style="enable-background:new 0 0 513.067 513.067;" xml:space="preserve">
<circle style="fill:#40596B;" cx="121.6" cy="336.178" r="89.6"/>
<path style="fill:#334A5E;" d="M33.067,336.178c0,3.2,0,7.467,1.067,10.667H211.2c0-3.2,1.067-7.467,1.067-10.667H33.067z"/>
<circle style="fill:#F2F2F2;" cx="121.6" cy="336.178" r="39.467"/>
<path style="fill:#FFD15C;" d="M439.467,272.178v64h-371.2V165.511H169.6c50.133,0,89.6,40.533,89.6,90.667v26.667h43.733
	c3.2-28.8,20.267-52.267,43.733-66.133c23.467-12.8,37.333-39.467,33.067-66.133l-1.067-7.467H416
	C430.933,183.644,439.467,227.378,439.467,272.178z"/>
<path style="fill:#FF7058;" d="M121.6,214.578c-67.2,0-121.6,54.4-121.6,121.6h243.2C243.2,268.978,188.8,214.578,121.6,214.578z"/>
<path style="fill:#FC6551;" d="M121.6,225.244c64,0,115.2,49.067,120.533,110.933h1.067c0-67.2-54.4-121.6-121.6-121.6
	S0,268.978,0,336.178h1.067C6.4,274.311,58.667,225.244,121.6,225.244z"/>
<path style="fill:#CDD6E0;" d="M82.133,336.178c0,3.2,1.067,7.467,2.133,10.667h76.8c1.067-3.2,2.133-7.467,2.133-10.667l0,0H82.133
	L82.133,336.178z"/>
<path style="fill:#F8B64C;" d="M229.333,198.578c3.2,0,6.4-1.067,8.533-1.067c-17.067-19.2-41.6-32-68.267-32H68.267v33.067H229.333
	z"/>
<path style="fill:#FF7058;" d="M229.333,187.911h-163.2c-10.667,0-19.2-8.533-19.2-19.2v-6.4c0-10.667,8.533-19.2,19.2-19.2h163.2
	c10.667,0,19.2,8.533,19.2,19.2v6.4C248.533,179.378,240,187.911,229.333,187.911z"/>
<path style="fill:#F8B64C;" d="M419.2,153.778H416c-4.267,1.067-20.267,4.267-36.267,5.333c0-3.2,0-5.333-1.067-8.533l-1.067-7.467
	h37.333C417.067,146.311,418.133,149.511,419.2,153.778z"/>
<path style="fill:#40596B;" d="M414.933,143.111c0,0-58.667,12.8-71.467,0c-8.533-8.533-8.533-41.6,0-50.133
	c12.8-12.8,71.467,0,71.467,0V143.111z"/>
<rect x="414.933" y="92.978" style="fill:#F8B64C;" width="11.733" height="50.133"/>
<path style="fill:#CDD6E0;" d="M357.333,128.178H326.4c-6.4,0-10.667-5.333-10.667-10.667l0,0c0-6.4,5.333-10.667,10.667-10.667
	h30.933c6.4,0,10.667,5.333,10.667,10.667l0,0C368,123.911,363.733,128.178,357.333,128.178z"/>
<circle style="fill:#40596B;" cx="429.867" cy="367.111" r="58.667"/>
<path style="fill:#334A5E;" d="M429.867,307.378c-32,0-58.667,26.667-58.667,58.667c0,9.6,2.133,19.2,6.4,27.733l108.8-39.467
	C482.133,327.644,457.6,307.378,429.867,307.378z"/>
<circle style="fill:#F2F2F2;" cx="429.867" cy="367.111" r="23.467"/>
<path style="fill:#CDD6E0;" d="M453.333,367.111c0-12.8-10.667-23.467-23.467-23.467c-12.8,0-23.467,10.667-23.467,23.467
	c0,5.333,2.133,10.667,5.333,14.933L453.333,367.111L453.333,367.111z"/>
<path style="fill:#FF7058;" d="M398.933,279.644c-45.867,17.067-70.4,68.267-53.333,114.133l167.467-60.8
	C497.067,287.111,445.867,263.644,398.933,279.644z"/>
<path style="fill:#FC6551;" d="M343.467,388.444c-7.467-41.6,17.067-83.2,58.667-98.133c40.533-14.933,85.333,1.067,107.733,36.267
	l0,0c0-1.067-1.067-2.133-1.067-3.2c-12.8-24.533-36.267-41.6-62.933-45.867c-1.067,0-3.2-1.067-4.267-1.067c-1.067,0-3.2,0-4.267,0
	c-3.2,0-7.467,0-10.667,0l0,0c-4.267,0-7.467,1.067-11.733,1.067c-1.067,0-1.067,0-2.133,0c-3.2,1.067-7.467,2.133-10.667,3.2
	h-1.067C355.2,295.644,331.733,343.644,343.467,388.444z"/>
<g>
</g>
<g>
</g>
<g>
</g>
<g>
</g>
<g>
</g>
<g>
</g>
<g>
</g>
<g>
</g>
<g>
</g>
<g>
</g>
<g>
</g>
<g>
</g>
<g>
</g>
<g>
</g>
<g>
</g>
</svg>
